HIERARCHY
ROOT Hips
{
	OFFSET 0.000000 35.082581 0.000000
	CHANNELS 6 Xposition Yposition Zposition Xrotation Yrotation Zrotation 
	JOINT Spine
	{
		OFFSET 0.000000 6.876099 0.125700
		CHANNELS 3 Xrotation Yrotation Zrotation
		JOINT Spine1
		{
			OFFSET 0.000000 5.730043 0.104720
			CHANNELS 3 Xrotation Yrotation Zrotation
			JOINT Spine1_split
			{
				OFFSET 0.000000 5.730043 0.104720
				CHANNELS 3 Xrotation Yrotation Zrotation
				JOINT Spine2
				{
					OFFSET 0.000000 5.730043 0.104720
					CHANNELS 3 Xrotation Yrotation Zrotation
					JOINT Neck
					{
						OFFSET 0.000000 10.314075 0.188496
						CHANNELS 3 Xrotation Yrotation Zrotation
						JOINT Head
						{
							OFFSET 0.000000 7.643700 -2.377400
							CHANNELS 3 Xrotation Yrotation Zrotation
							JOINT HeadTop_End
							{
								OFFSET 0.000000 43.788605 -13.619600
								CHANNELS 3 Xrotation Yrotation Zrotation
								End Site
								{
									OFFSET 0.000000 0.000000 0.000000
								}
							}
						}
					}
					JOINT LeftShoulder
					{
						OFFSET 2.196100 4.412489 0.087492
						CHANNELS 3 Xrotation Yrotation Zrotation
						JOINT LeftShoulder_split
						{
							OFFSET 2.196100 4.412489 0.087492
							CHANNELS 3 Xrotation Yrotation Zrotation
							JOINT LeftArm
							{
								OFFSET 8.771219 -2.981674 -0.026999
								CHANNELS 3 Xrotation Yrotation Zrotation
								JOINT LeftForeArm
								{
									OFFSET 8.512804 0.000000 -0.000000
									CHANNELS 3 Xrotation Yrotation Zrotation
									JOINT LeftHand
									{
										OFFSET 18.484802 0.000000 -0.000000
										CHANNELS 3 Xrotation Yrotation Zrotation
										JOINT LeftHandThumb1
										{
											OFFSET 2.499420 -1.158070 2.653252
											CHANNELS 3 Xrotation Yrotation Zrotation
											JOINT LeftHandThumb2
											{
												OFFSET 2.370079 -1.368366 1.368366
												CHANNELS 3 Xrotation Yrotation Zrotation
												JOINT LeftHandThumb3
												{
													OFFSET 2.676727 -1.545410 1.545409
													CHANNELS 3 Xrotation Yrotation Zrotation
													JOINT LeftHandThumb4
													{
														OFFSET 1.692226 -0.977005 0.977007
														CHANNELS 3 Xrotation Yrotation Zrotation
														End Site
														{
															OFFSET 0.000000 0.000000 0.000000
														}
													}
												}
											}
										}
										JOINT LeftHandIndex1
										{
											OFFSET 7.924831 -0.457527 2.345128
											CHANNELS 3 Xrotation Yrotation Zrotation
											JOINT LeftHandIndex2
											{
												OFFSET 3.643303 0.000000 0.000000
												CHANNELS 3 Xrotation Yrotation Zrotation
												JOINT LeftHandIndex3
												{
													OFFSET 3.810799 0.000000 0.000000
													CHANNELS 3 Xrotation Yrotation Zrotation
													JOINT LeftHandIndex4
													{
														OFFSET 2.403702 0.000000 0.000000
														CHANNELS 3 Xrotation Yrotation Zrotation
														End Site
														{
															OFFSET 0.000000 0.000000 0.000000
														}
													}
												}
											}
										}
										JOINT LeftHandMiddle1
										{
											OFFSET 8.563995 0.000000 -0.000000
											CHANNELS 3 Xrotation Yrotation Zrotation
											JOINT LeftHandMiddle2
											{
												OFFSET 3.861618 0.000000 0.000000
												CHANNELS 3 Xrotation Yrotation Zrotation
												JOINT LeftHandMiddle3
												{
													OFFSET 3.701603 0.000000 0.000000
													CHANNELS 3 Xrotation Yrotation Zrotation
													JOINT LeftHandMiddle4
													{
														OFFSET 2.322544 0.000000 0.000000
														CHANNELS 3 Xrotation Yrotation Zrotation
														End Site
														{
															OFFSET 0.000000 0.000000 0.000000
														}
													}
												}
											}
										}
										JOINT LeftHandRing1
										{
											OFFSET 8.426460 -0.424637 -3.286992
											CHANNELS 3 Xrotation Yrotation Zrotation
											JOINT LeftHandRing2
											{
												OFFSET 3.126408 0.000000 0.000000
												CHANNELS 3 Xrotation Yrotation Zrotation
												JOINT LeftHandRing3
												{
													OFFSET 3.085026 0.000000 0.000000
													CHANNELS 3 Xrotation Yrotation Zrotation
													JOINT LeftHandRing4
													{
														OFFSET 1.644005 0.000000 0.000000
														CHANNELS 3 Xrotation Yrotation Zrotation
														End Site
														{
															OFFSET 0.000000 0.000000 0.000000
														}
													}
												}
											}
										}
									}
								}
							}
						}
					}
					JOINT RightShoulder
					{
						OFFSET -2.196100 4.412496 0.070690
						CHANNELS 3 Xrotation Yrotation Zrotation
						JOINT RightShoulder_split
						{
							OFFSET -2.196100 4.412496 0.070690
							CHANNELS 3 Xrotation Yrotation Zrotation
							JOINT RightArm
							{
								OFFSET -8.771282 -2.981682 -0.094208
								CHANNELS 3 Xrotation Yrotation Zrotation
								JOINT RightForeArm
								{
									OFFSET -8.494598 0.000000 0.000000
									CHANNELS 3 Xrotation Yrotation Zrotation
									JOINT RightHand
									{
										OFFSET -18.483803 0.000000 0.000001
										CHANNELS 3 Xrotation Yrotation Zrotation
										JOINT RightHandThumb1
										{
											OFFSET -2.527351 -1.008072 2.575253
											CHANNELS 3 Xrotation Yrotation Zrotation
											JOINT RightHandThumb2
											{
												OFFSET -2.321518 -1.340328 1.340329
												CHANNELS 3 Xrotation Yrotation Zrotation
												JOINT RightHandThumb3
												{
													OFFSET -2.657753 -1.534454 1.534455
													CHANNELS 3 Xrotation Yrotation Zrotation
													JOINT RightHandThumb4
													{
														OFFSET -1.807510 -1.043568 1.043567
														CHANNELS 3 Xrotation Yrotation Zrotation
														End Site
														{
															OFFSET 0.000000 0.000000 0.000000
														}
													}
												}
											}
										}
										JOINT RightHandIndex1
										{
											OFFSET -8.811420 0.015533 2.887987
											CHANNELS 3 Xrotation Yrotation Zrotation
											JOINT RightHandIndex2
											{
												OFFSET -3.537502 0.000000 0.000000
												CHANNELS 3 Xrotation Yrotation Zrotation
												JOINT RightHandIndex3
												{
													OFFSET -3.356201 0.000000 0.000000
													CHANNELS 3 Xrotation Yrotation Zrotation
													JOINT RightHandIndex4
													{
														OFFSET -1.933098 0.000000 0.000000
														CHANNELS 3 Xrotation Yrotation Zrotation
														End Site
														{
															OFFSET 0.000000 0.000000 0.000000
														}
													}
												}
											}
										}
										JOINT RightHandMiddle1
										{
											OFFSET -8.178135 0.000000 0.000000
											CHANNELS 3 Xrotation Yrotation Zrotation
											JOINT RightHandMiddle2
											{
												OFFSET -3.901302 0.000000 0.000000
												CHANNELS 3 Xrotation Yrotation Zrotation
												JOINT RightHandMiddle3
												{
													OFFSET -3.909599 0.000000 0.000000
													CHANNELS 3 Xrotation Yrotation Zrotation
													JOINT RightHandMiddle4
													{
														OFFSET -2.376003 0.000000 0.000000
														CHANNELS 3 Xrotation Yrotation Zrotation
														End Site
														{
															OFFSET 0.000000 0.000000 0.000000
														}
													}
												}
											}
										}
										JOINT RightHandRing1
										{
											OFFSET -7.559013 0.014137 -2.865403
											CHANNELS 3 Xrotation Yrotation Zrotation
											JOINT RightHandRing2
											{
												OFFSET -3.449306 0.000000 0.000000
												CHANNELS 3 Xrotation Yrotation Zrotation
												JOINT RightHandRing3
												{
													OFFSET -3.362106 0.000000 0.000000
													CHANNELS 3 Xrotation Yrotation Zrotation
													JOINT RightHandRing4
													{
														OFFSET -2.076401 0.000000 0.000000
														CHANNELS 3 Xrotation Yrotation Zrotation
														End Site
														{
															OFFSET 0.000000 0.000000 0.000000
														}
													}
												}
											}
										}
									}
								}
							}
						}
					}
				}
			}
		}
	}
	JOINT LeftUpLeg
	{
		OFFSET 10.205400 -3.823500 0.155100
		CHANNELS 3 Xrotation Yrotation Zrotation
		JOINT LeftLeg
		{
			OFFSET 0.708757 -12.982077 0.567790
			CHANNELS 3 Xrotation Yrotation Zrotation
			JOINT LeftFoot
			{
				OFFSET -0.708756 -10.717838 -2.184338
				CHANNELS 3 Xrotation Yrotation Zrotation
				JOINT LeftToeBase
				{
					OFFSET 0.108149 -7.191104 7.560241
					CHANNELS 3 Xrotation Yrotation Zrotation
					JOINT LeftToe_End
					{
						OFFSET 0.070230 0.081724 4.490308
						CHANNELS 3 Xrotation Yrotation Zrotation
						End Site
						{
							OFFSET 0.000000 0.000000 0.000000
						}
					}
				}
			}
		}
	}
	JOINT RightUpLeg
	{
		OFFSET -10.205400 -3.823500 0.005500
		CHANNELS 3 Xrotation Yrotation Zrotation
		JOINT RightLeg
		{
			OFFSET -0.708756 -12.982134 0.610632
			CHANNELS 3 Xrotation Yrotation Zrotation
			JOINT RightFoot
			{
				OFFSET 0.708754 -10.717769 -1.945823
				CHANNELS 3 Xrotation Yrotation Zrotation
				JOINT RightToeBase
				{
					OFFSET -0.108140 -7.191069 7.372968
					CHANNELS 3 Xrotation Yrotation Zrotation
					JOINT RightToe_End
					{
						OFFSET -0.070227 0.081735 4.479403
						CHANNELS 3 Xrotation Yrotation Zrotation
						End Site
						{
							OFFSET 0.000000 0.000000 0.000000
						}
					}
				}
			}
		}
	}
}
MOTION
Frames: 4
Frame Time: 0.016667
1.805904 17.776417 -1.212623 0.480533 -175.222766 -8.859721 4.049407 3.104998 -2.248587 8.251960 6.771408 -4.731512 0.000000 0.000000 0.000000 8.251964 6.771406 -4.731510 -1.987047 28.311167 6.773757 5.084064 36.051835 -22.849326 0.000000 -0.000000 -0.000000 1.033476 -15.235094 -11.647807 0.000000 0.000000 0.000000 3.042445 -0.761212 -32.016361 40.133567 -33.388184 -1.908180 12.866409 10.638173 2.322262 -9.419898 -10.451162 8.422276 2.321113 6.714503 2.170918 -0.000002 0.000005 -0.000009 -0.000003 -0.000000 -0.000004 -1.239103 -9.024533 -4.969428 -0.126838 0.207659 -21.714373 0.000009 0.000003 0.000003 0.000001 -0.000000 -0.000001 1.309881 -1.012392 -8.080152 -0.178445 -0.773443 -14.430103 -0.000000 -0.000004 0.000001 0.000000 -0.000001 0.000001 -0.365422 2.944776 -4.498886 -0.505482 -2.597475 -30.199487 0.000001 0.000004 0.000004 -0.000001 -0.000000 -0.000001 3.185190 -18.297173 12.806523 0.000000 0.000000 0.000000 12.807468 -13.875008 59.330520 29.940793 40.956884 -3.738865 19.089486 -1.945244 12.311406 -7.852800 4.769979 -9.664433 -0.642362 -0.093876 -1.289337 -0.000002 0.000003 -0.000006 0.000005 -0.000001 0.000002 -1.233018 0.595988 8.695214 0.120530 -1.119644 16.859796 0.000008 0.000002 -0.000002 -0.000002 -0.000001 0.000001 -1.142357 -1.774143 0.545302 -0.357887 1.142262 22.116002 -0.000009 -0.000003 0.000003 0.000000 0.000000 0.000001 1.909900 -0.146224 -2.803260 -0.619903 3.110106 28.344735 0.000011 0.000006 -0.000005 -0.000000 0.000002 -0.000003 -69.599027 -38.405689 39.044558 127.456767 -25.007617 -3.074755 -42.136929 8.453290 -16.043773 -1.260598 1.230917 1.485966 -0.000000 0.000001 0.000000 -37.429915 11.133984 -40.297454 112.354160 24.693280 3.386001 -55.786294 -14.279774 19.968287 -9.240333 -3.038591 -0.168797 0.000000 0.000001 0.000000 
1.805102 17.776398 -1.215456 0.457918 -175.226673 -8.861566 4.044175 3.102550 -2.248044 8.241340 6.766907 -4.730119 0.000000 0.000000 0.000000 8.241342 6.766911 -4.730120 -1.988039 28.342476 6.708605 5.079930 36.041167 -22.785390 0.000001 0.000000 -0.000000 1.032221 -15.314485 -11.643136 0.000000 0.000000 0.000000 3.086114 -0.688669 -32.029438 40.144560 -33.392641 -1.914902 12.845099 10.616999 2.348263 -9.419907 -10.451164 8.422270 2.321120 6.714504 2.170918 -0.000000 0.000003 -0.000008 0.000000 -0.000001 -0.000002 -1.239130 -9.024843 -4.949871 -0.126836 0.207658 -21.714373 0.000003 0.000002 0.000005 -0.000001 -0.000000 0.000001 1.310094 -1.010955 -8.062255 -0.178453 -0.773443 -14.430103 -0.000001 -0.000003 0.000001 -0.000001 -0.000000 0.000002 -0.365328 2.945775 -4.487026 -0.505480 -2.597472 -30.199494 -0.000009 0.000003 0.000007 -0.000002 0.000000 -0.000002 3.178413 -18.230234 12.777570 0.000000 0.000000 0.000000 12.845291 -13.905121 59.356680 29.929384 40.938706 -3.736771 19.065812 -1.958740 12.297306 -7.852795 4.769986 -9.664435 -0.642357 -0.093878 -1.289338 0.000006 0.000003 -0.000000 0.000009 0.000003 0.000003 -1.233018 0.595985 8.695213 0.120527 -1.119646 16.859796 0.000014 0.000003 -0.000003 -0.000001 -0.000002 0.000001 -1.142370 -1.774137 0.545300 -0.357884 1.142263 22.116011 -0.000004 -0.000003 0.000003 -0.000000 0.000000 -0.000002 1.909923 -0.146222 -2.803232 -0.619901 3.110107 28.344735 0.000009 0.000005 -0.000005 0.000003 0.000001 -0.000001 -69.616867 -38.407646 39.041491 127.457928 -25.010519 -3.075518 -42.144125 8.455558 -16.043387 -1.260655 1.230930 1.485890 -0.000000 0.000003 0.000000 -37.449552 11.126478 -40.313528 112.356304 24.688479 3.384723 -55.787462 -14.267438 19.954089 -9.240327 -3.038589 -0.168795 0.000000 -0.000000 0.000000 
1.803186 17.776741 -1.217680 0.440388 -175.215840 -8.862507 4.041078 3.099467 -2.247690 8.234955 6.762120 -4.728767 0.000000 0.000000 0.000000 8.234946 6.762120 -4.728764 -1.961529 28.352931 6.666012 5.081380 36.036672 -22.765801 0.000001 -0.000000 0.000000 1.018255 -15.384837 -11.671250 0.000000 0.000000 0.000000 3.130071 -0.613957 -31.998439 40.157045 -33.422434 -1.934998 12.833473 10.604156 2.361217 -9.418941 -10.451650 8.418990 2.321124 6.714500 2.170918 0.000002 0.000001 -0.000010 0.000003 -0.000002 -0.000000 -1.238324 -9.020194 -4.898269 -0.126838 0.207659 -21.714372 0.000005 0.000003 0.000005 -0.000002 0.000001 -0.000001 1.310633 -1.007228 -8.016516 -0.178451 -0.773443 -14.430105 0.000003 -0.000002 0.000001 -0.000001 -0.000000 -0.000000 -0.365119 2.948515 -4.454888 -0.505471 -2.597474 -30.199494 -0.000001 0.000006 0.000004 0.000001 -0.000000 0.000002 3.169441 -18.205171 12.731722 0.000000 0.000000 0.000000 12.862361 -13.921458 59.407667 29.931057 40.882370 -3.744477 19.093920 -1.984751 12.297564 -7.852792 4.769986 -9.664449 -0.642358 -0.093878 -1.289338 0.000003 0.000007 -0.000002 0.000003 0.000000 -0.000000 -1.233024 0.595991 8.695206 0.120524 -1.119644 16.859793 0.000011 0.000004 -0.000003 0.000001 -0.000000 0.000000 -1.142366 -1.774138 0.545301 -0.357885 1.142263 22.116002 -0.000007 -0.000003 0.000003 -0.000000 0.000001 -0.000001 1.909927 -0.146215 -2.803244 -0.619901 3.110111 28.344732 0.000008 0.000005 -0.000006 0.000001 0.000001 -0.000000 -69.665498 -38.402773 39.013129 127.462067 -24.996826 -3.071897 -42.133323 8.449332 -16.039214 -1.260674 1.230908 1.485863 0.000000 -0.000001 0.000000 -37.441707 11.100401 -40.324511 112.354180 24.685707 3.383683 -55.817785 -14.264188 19.936955 -9.244700 -3.038579 -0.169246 0.000000 -0.000000 0.000000 
1.801653 17.777267 -1.219980 0.423073 -175.206373 -8.863476 4.037239 3.097721 -2.245585 8.227046 6.760017 -4.723991 0.000000 0.000000 0.000000 8.227053 6.760015 -4.723986 -1.937315 28.365922 6.632016 5.105500 36.028278 -22.760306 -0.000001 0.000000 0.000000 1.010101 -15.419003 -11.688422 0.000000 0.000000 0.000000 3.153015 -0.589270 -31.984663 40.162605 -33.418073 -1.949332 12.827810 10.613340 2.381316 -9.417397 -10.452414 8.413782 2.321122 6.714503 2.170919 -0.000002 0.000004 -0.000011 -0.000004 0.000002 -0.000000 -1.237237 -9.013933 -4.828707 -0.126839 0.207659 -21.714370 0.000007 0.000004 0.000004 -0.000001 -0.000000 -0.000002 1.311329 -1.002224 -7.954883 -0.178454 -0.773444 -14.430103 -0.000002 -0.000001 -0.000001 -0.000000 0.000001 -0.000002 -0.360600 2.951160 -4.408630 -0.505479 -2.597473 -30.199490 -0.000004 0.000004 0.000004 0.000000 0.000001 -0.000000 3.165847 -18.194343 12.713011 0.000000 0.000000 0.000000 12.873439 -13.941526 59.432659 29.941466 40.850955 -3.760522 19.119793 -2.010034 12.308811 -7.852792 4.769959 -9.664421 -0.642360 -0.093873 -1.289333 0.000001 0.000006 -0.000000 0.000003 -0.000000 -0.000003 -1.233015 0.595983 8.695229 0.120528 -1.119644 16.859796 0.000013 0.000002 -0.000005 -0.000000 -0.000003 0.000003 -1.142369 -1.774143 0.545312 -0.357884 1.142261 22.116009 -0.000003 -0.000003 0.000001 0.000001 0.000000 -0.000001 1.909909 -0.146233 -2.803238 -0.619900 3.110104 28.344735 0.000013 0.000006 -0.000004 -0.000002 -0.000002 0.000000 -69.705052 -38.394717 38.989841 127.467709 -24.985816 -3.069427 -42.131762 8.442601 -16.031646 -1.260662 1.230937 1.485886 0.000000 0.000003 0.000000 -37.434921 11.076514 -40.333264 112.352630 24.681544 3.382869 -55.845310 -14.261967 19.922287 -9.257093 -3.043246 -0.171282 -0.000001 -0.000002 -0.000000 
